<svg xmlns="http://www.w3.org/2000/svg" xmlns:xlink="http://www.w3.org/1999/xlink" xmlns:serif="http://www.serif.com/" viewBox="0 0 100 125" version="1.1" xml:space="preserve" style="" x="0px" y="0px" fill-rule="evenodd" clip-rule="evenodd" stroke-linejoin="round" stroke-miterlimit="2"><g transform="matrix(2.56187,0,0,2.56187,-3302.82,-4886.51)"><path d="M1308.92,1911.91L1308.92,1914.41L1300.89,1914.41C1297.78,1914.41 1295.26,1916.93 1295.26,1920.04C1295.26,1920.04 1295.26,1933.79 1295.26,1933.79C1295.26,1936.9 1297.78,1939.42 1300.89,1939.42C1300.89,1939.42 1316.59,1939.42 1316.59,1939.42C1319.7,1939.42 1322.22,1936.9 1322.22,1933.79L1322.22,1928.52L1324.72,1928.52L1324.72,1933.79C1324.72,1938.28 1321.08,1941.92 1316.59,1941.92L1300.89,1941.92C1296.4,1941.92 1292.76,1938.28 1292.76,1933.79L1292.76,1920.04C1292.76,1915.56 1296.4,1911.91 1300.89,1911.91L1308.92,1911.91ZM1324.52,1913.16L1323.27,1911.91L1313.75,1911.91L1313.75,1914.41L1320.26,1914.41L1308.04,1926.63L1309.8,1928.4L1322.04,1916.17C1322.04,1916.17 1322.07,1923.54 1322.07,1923.54L1324.57,1923.53L1324.52,1913.16Z"/></g></svg>
